<?xml version="1.0" encoding="UTF-8" ?>
<!DOCTYPE svg PUBLIC "-//W3C//DTD SVG 1.1//EN" "http://www.w3.org/Graphics/SVG/1.1/DTD/svg11.dtd">
<svg width="500pt" height="500pt" viewBox="0 0 500 500" version="1.1" xmlns="http://www.w3.org/2000/svg">
<path fill="#ffffff" d=" M 0.00 0.00 L 500.00 0.00 L 500.00 500.00 L 0.00 500.00 L 0.00 0.00 Z" />
<path fill="#2b2a29" d=" M 220.49 1.76 C 224.96 1.25 229.46 0.72 233.97 0.97 C 246.65 1.08 259.33 0.92 272.00 1.02 C 307.80 4.04 342.89 15.11 374.04 33.00 C 423.49 61.25 462.74 106.90 483.09 160.12 C 492.37 184.02 497.63 209.42 499.39 234.97 C 498.54 245.96 499.21 257.01 499.03 268.02 C 496.38 306.86 484.30 344.99 464.25 378.36 C 447.17 406.87 424.34 431.91 397.55 451.56 C 360.25 479.03 315.12 495.82 268.89 499.09 C 255.60 498.86 242.29 499.14 229.00 498.90 C 179.71 495.06 131.87 475.71 93.46 444.64 C 67.26 423.53 45.35 397.10 29.54 367.39 C 13.35 337.04 3.52 303.29 1.04 268.98 C 0.78 257.01 1.40 245.01 0.61 233.06 C 1.54 225.33 2.19 217.56 3.49 209.88 C 11.74 157.81 37.21 108.71 74.87 71.84 C 113.84 33.18 165.94 8.04 220.49 1.76 Z" />
<path fill="#ffd67d" d=" M 231.51 15.12 C 243.78 13.95 256.22 13.98 268.49 15.10 C 264.33 15.51 260.15 15.82 255.96 15.68 C 247.81 15.41 239.63 16.11 231.51 15.12 Z" />
<path fill="#d7b56d" d=" M 205.50 18.32 C 214.10 16.83 222.76 15.16 231.51 15.12 C 239.63 16.11 247.81 15.41 255.96 15.68 C 260.15 15.82 264.33 15.51 268.49 15.10 C 273.39 14.96 278.25 15.82 283.09 16.43 C 321.61 21.78 358.67 37.03 389.91 60.17 C 437.27 94.98 470.82 148.05 481.53 205.88 C 483.20 215.92 485.09 226.09 484.93 236.30 C 483.45 245.30 483.37 254.66 484.92 263.65 C 485.10 273.55 483.27 283.42 481.68 293.17 C 474.84 330.37 458.77 365.79 435.39 395.51 C 413.41 423.51 385.06 446.50 353.04 462.06 C 314.19 481.12 269.99 488.87 226.94 484.63 C 171.94 479.50 119.24 453.94 80.93 414.17 C 42.33 374.65 18.38 321.16 14.92 266.00 C 14.96 265.43 15.02 264.28 15.06 263.71 C 16.57 254.70 16.60 245.35 15.05 236.34 C 14.64 232.26 15.44 228.17 15.76 224.10 C 20.72 177.68 40.02 132.95 70.28 97.42 C 104.64 56.72 153.13 28.18 205.50 18.32 Z" />
<path fill="#2b2a29" d=" M 221.10 25.26 C 226.19 24.70 231.30 23.81 236.43 24.13 C 245.39 25.55 254.61 25.57 263.57 24.14 C 264.69 24.03 265.82 24.00 266.96 24.07 C 308.93 27.05 349.92 42.25 383.79 67.22 C 427.48 99.14 459.12 147.16 470.81 200.02 C 481.13 245.69 476.95 294.54 458.72 337.69 C 445.11 370.14 423.77 399.29 397.02 422.15 C 369.56 445.71 336.36 462.54 301.10 470.65 C 254.88 481.37 205.29 477.18 161.64 458.53 C 134.69 447.09 110.01 430.34 89.41 409.54 C 62.81 382.81 43.03 349.33 32.58 313.09 C 20.98 273.10 20.69 229.92 31.74 189.78 C 43.67 146.01 69.27 106.15 103.94 76.91 C 136.92 48.88 178.13 30.64 221.10 25.26 Z" />
<path fill="#141720" d=" M 236.43 24.13 C 245.42 23.21 254.58 23.19 263.57 24.14 C 254.61 25.57 245.39 25.55 236.43 24.13 Z" />
<path fill="#fefefe" d=" M 247.23 45.61 C 248.48 46.83 249.76 48.04 250.98 49.31 C 253.94 52.60 257.02 55.78 260.04 59.01 C 262.60 61.85 265.25 64.59 267.95 67.30 C 270.90 70.57 273.97 73.74 276.99 76.96 C 279.56 79.82 282.23 82.59 284.95 85.32 C 287.91 88.60 290.99 91.77 294.01 94.99 C 296.58 97.86 299.26 100.63 301.98 103.37 C 304.59 106.26 307.31 109.06 309.98 111.91 C 313.72 115.98 317.51 120.01 321.33 124.02 C 339.57 109.51 358.07 95.34 376.28 80.80 C 376.61 81.18 377.27 81.94 377.60 82.31 C 378.44 83.30 379.33 84.25 380.22 85.20 C 384.40 89.95 388.61 94.67 392.92 99.30 C 394.56 101.24 396.27 103.12 397.98 105.00 C 399.28 106.47 400.62 107.89 401.94 109.34 C 403.57 111.26 405.27 113.09 406.99 114.92 C 408.41 116.46 409.75 118.07 411.03 119.72 C 398.71 109.79 386.33 99.92 374.06 89.93 C 358.88 111.95 343.71 133.98 328.55 156.01 C 305.72 127.12 283.18 98.01 260.37 69.11 C 257.47 73.35 254.95 77.87 251.74 81.88 C 242.16 82.64 232.48 82.05 222.89 82.75 C 209.56 106.81 196.70 131.16 183.63 155.38 C 173.58 134.06 163.89 112.57 154.06 91.14 C 133.41 103.78 112.78 116.48 92.04 128.95 C 114.60 109.56 137.26 90.24 159.91 70.94 C 167.95 88.86 176.09 106.73 184.24 124.59 C 205.20 98.23 226.33 72.01 247.23 45.61 Z" />
<path fill="#090807" d=" M 250.13 47.57 C 254.00 50.73 258.66 53.92 260.04 59.01 C 257.02 55.78 253.94 52.60 250.98 49.31 L 250.13 47.57 Z" />
<path fill="#090807" d=" M 267.07 65.56 C 270.91 68.72 275.67 71.89 276.99 76.96 C 273.97 73.74 270.90 70.57 267.95 67.30 L 267.07 65.56 Z" />
<path fill="#12100f" d=" M 377.60 82.31 C 378.78 79.89 381.97 83.63 380.22 85.20 C 379.33 84.25 378.44 83.30 377.60 82.31 Z" />
<path fill="#090807" d=" M 284.11 83.57 C 287.91 86.78 292.68 89.91 294.01 94.99 C 290.99 91.77 287.91 88.60 284.95 85.32 L 284.11 83.57 Z" />
<path fill="#d7b56d" d=" M 250.77 93.23 C 255.96 98.84 256.56 106.92 261.06 112.96 C 264.22 117.35 267.18 122.38 266.79 128.01 C 266.55 136.53 257.30 143.51 249.05 140.96 C 241.93 139.07 236.83 131.41 238.49 124.09 C 239.58 118.20 244.33 114.09 246.97 108.94 C 249.41 104.09 250.88 98.68 250.77 93.23 Z" />
<path fill="#151413" d=" M 392.17 97.37 C 394.96 99.10 397.87 101.38 397.98 105.00 C 396.27 103.12 394.56 101.24 392.92 99.30 L 392.17 97.37 Z" />
<path fill="#090807" d=" M 301.13 101.59 C 304.66 104.38 308.85 107.27 309.98 111.91 C 307.31 109.06 304.59 106.26 301.98 103.37 L 301.13 101.59 Z" />
<path fill="#090807" d=" M 401.09 107.65 C 403.79 109.35 406.61 111.49 406.99 114.92 C 405.27 113.09 403.57 111.26 401.94 109.34 L 401.09 107.65 Z" />
<path fill="#0e0d0c" d=" M 261.32 116.79 C 264.05 121.79 266.15 128.13 263.46 133.57 C 261.05 138.12 255.61 139.80 250.75 139.66 C 254.23 138.00 258.53 137.15 260.64 133.57 C 263.97 128.50 261.83 122.33 261.32 116.79 Z" />
<path fill="#090807" d=" M 347.76 176.78 C 351.89 175.83 356.28 175.85 360.44 176.59 C 363.37 178.01 365.71 183.73 361.45 184.97 C 363.02 182.46 362.49 178.90 359.58 177.69 C 356.01 176.87 352.30 177.38 348.67 177.26 C 348.66 182.99 348.80 188.72 348.56 194.44 C 346.72 192.39 347.33 189.47 347.19 186.96 C 347.28 183.57 346.95 180.10 347.76 176.78 Z" />
<path fill="#ffffff" d=" M 142.44 177.41 C 143.61 177.35 144.77 177.30 145.94 177.26 C 147.52 181.79 149.01 186.34 150.51 190.89 C 152.10 186.41 153.66 181.92 155.17 177.42 C 155.98 177.38 157.59 177.31 158.40 177.27 C 158.35 182.95 158.40 188.64 158.36 194.32 C 157.73 194.23 156.48 194.04 155.85 193.94 C 155.69 189.82 156.00 185.70 156.10 181.59 C 154.54 185.06 153.45 188.72 152.12 192.28 C 151.59 193.28 150.87 194.14 149.96 194.86 C 147.80 190.58 146.94 185.81 144.83 181.52 C 144.65 185.58 145.11 189.66 144.70 193.72 L 142.61 194.54 C 142.40 188.83 142.62 183.12 142.44 177.41 Z" />
<path fill="#ffffff" d=" M 182.83 176.85 C 183.96 177.36 185.51 177.42 186.14 178.70 C 188.80 182.36 191.08 186.28 193.70 189.97 C 193.69 185.64 193.58 181.31 193.68 176.98 C 194.26 177.14 195.42 177.48 196.00 177.64 C 196.25 183.24 196.05 188.85 196.07 194.45 C 195.41 194.22 194.09 193.77 193.43 193.54 C 190.38 189.79 188.18 185.42 185.17 181.63 C 185.19 185.89 185.30 190.16 185.21 194.43 C 184.63 194.24 183.46 193.86 182.88 193.66 C 182.60 188.07 182.79 182.45 182.83 176.85 Z" />
<path fill="#ffffff" d=" M 284.46 177.50 C 289.50 175.49 295.16 179.71 295.21 185.00 C 296.08 190.82 289.74 196.32 284.19 193.72 C 277.35 191.15 277.49 179.79 284.46 177.50 Z" />
<path fill="#fefefe" d=" M 303.26 177.39 C 303.94 177.36 305.29 177.28 305.97 177.25 C 307.90 181.77 308.92 186.69 311.16 191.07 C 312.91 186.49 314.44 181.82 316.29 177.27 C 316.92 177.30 318.20 177.36 318.84 177.38 C 316.64 182.43 314.86 187.64 312.74 192.72 C 312.42 194.04 310.50 195.00 309.71 193.47 C 307.30 188.22 305.62 182.66 303.26 177.39 Z" />
<path fill="#fefefe" d=" M 330.75 177.06 C 331.65 177.44 333.14 177.14 333.54 178.26 C 335.83 183.42 337.77 188.74 340.01 193.94 C 339.32 193.94 337.94 193.94 337.25 193.94 C 336.56 192.30 335.89 190.66 335.21 189.03 C 333.11 189.08 331.01 189.05 328.91 189.16 C 327.60 191.27 327.36 194.53 324.16 194.52 C 326.16 188.63 328.54 182.87 330.75 177.06 Z" />
<path fill="#fefefe" d=" M 348.67 177.26 C 352.30 177.38 356.01 176.87 359.58 177.69 C 362.49 178.90 363.02 182.46 361.45 184.97 C 360.41 185.54 359.34 186.06 358.28 186.57 C 360.48 188.93 362.30 191.61 363.86 194.43 C 359.79 194.75 358.88 190.66 356.76 188.19 C 355.60 186.34 353.19 186.85 351.35 186.55 C 351.32 188.99 351.33 191.44 351.33 193.89 C 350.64 194.03 349.25 194.31 348.56 194.44 C 348.80 188.72 348.66 182.99 348.67 177.26 Z" />
<path fill="#fefefe" d=" M 169.30 177.31 C 169.97 177.33 171.30 177.38 171.97 177.41 C 171.70 182.82 172.04 188.23 171.79 193.64 C 171.21 193.86 170.04 194.31 169.46 194.53 C 169.23 188.79 169.43 183.05 169.30 177.31 Z" />
<path fill="#fefefe" d=" M 207.06 177.41 C 207.72 177.38 209.04 177.33 209.71 177.30 C 209.58 183.04 209.79 188.79 209.55 194.54 C 208.97 194.30 207.80 193.84 207.22 193.61 C 207.00 188.21 207.31 182.81 207.06 177.41 Z" />
<path fill="#fbfbfb" d=" M 220.55 177.32 C 223.68 177.37 226.86 177.03 229.97 177.59 C 233.31 178.36 234.70 182.90 232.38 185.42 C 230.13 188.14 226.22 187.15 223.14 187.39 C 223.16 189.62 223.21 191.85 223.20 194.09 C 222.55 194.09 221.24 194.09 220.58 194.10 C 220.56 188.50 220.60 182.91 220.55 177.32 Z" />
<path fill="#fefefe" d=" M 243.72 177.00 C 244.32 177.15 245.51 177.47 246.11 177.63 C 246.32 183.23 246.14 188.83 246.17 194.43 C 245.57 194.24 244.39 193.85 243.80 193.66 C 243.53 188.11 243.75 182.55 243.72 177.00 Z" />
<path fill="#fefefe" d=" M 255.34 176.96 C 256.01 177.12 257.36 177.44 258.03 177.61 C 260.08 182.05 261.31 186.82 263.10 191.37 C 264.88 186.85 266.26 182.18 268.23 177.73 C 268.88 177.52 270.20 177.08 270.86 176.87 C 269.00 182.23 266.91 187.53 264.75 192.78 C 264.61 194.30 262.25 194.86 261.71 193.32 C 259.35 187.97 257.41 182.43 255.34 176.96 Z" />
<path fill="#222120" d=" M 223.20 179.58 C 225.22 179.64 227.27 179.47 229.27 179.83 C 231.23 180.40 231.46 183.64 229.71 184.61 C 227.64 185.34 225.41 185.14 223.26 185.25 C 223.22 183.36 223.18 181.46 223.20 179.58 Z" />
<path fill="#2b2a29" d=" M 285.38 179.51 C 291.53 177.35 294.75 186.03 291.27 190.22 C 288.96 193.39 283.56 192.47 282.21 188.83 C 281.11 185.61 281.60 180.67 285.38 179.51 Z" />
<path fill="#0e0d0c" d=" M 351.38 179.47 C 353.65 179.55 355.97 179.34 358.21 179.78 C 359.65 180.30 359.92 181.97 359.38 183.25 C 357.26 185.30 354.01 184.19 351.38 184.52 C 351.38 182.84 351.38 181.15 351.38 179.47 Z" />
<path fill="#090807" d=" M 331.95 179.99 C 332.75 182.28 333.54 184.59 334.45 186.85 C 332.78 186.83 331.11 186.84 329.45 186.87 C 330.35 184.60 331.14 182.29 331.95 179.99 Z" />
<path fill="#171614" d=" M 152.12 192.28 C 153.45 188.72 154.54 185.06 156.10 181.59 C 156.00 185.70 155.69 189.82 155.85 193.94 C 154.59 193.41 153.36 192.85 152.12 192.28 Z" />
<path fill="#e31e25" d=" M 402.28 208.27 C 409.40 204.16 418.09 206.08 425.28 209.00 C 425.36 215.34 425.34 221.68 425.31 228.02 C 422.01 225.32 418.57 221.60 413.88 222.14 C 410.56 222.37 408.44 225.98 408.90 229.10 C 409.10 233.49 412.42 236.73 415.26 239.72 C 420.93 245.66 426.23 252.69 427.29 261.07 C 428.45 270.71 425.58 281.58 417.50 287.58 C 409.76 293.08 398.76 291.82 391.00 287.04 C 390.47 280.28 390.92 273.49 390.81 266.72 C 394.19 270.68 398.34 275.18 404.03 274.90 C 407.91 274.77 410.18 270.53 409.90 267.01 C 410.14 262.76 407.88 258.91 405.00 255.98 C 399.35 250.11 393.52 243.70 391.66 235.54 C 389.78 225.53 393.05 213.62 402.28 208.27 Z" />
<path fill="#e31e25" d=" M 76.99 207.15 C 93.44 207.14 109.90 207.23 126.35 207.10 C 125.17 213.00 123.90 218.88 122.69 224.77 C 118.00 223.06 113.06 222.20 108.11 221.70 C 108.19 235.12 108.13 248.55 108.15 261.97 C 108.24 271.22 107.40 280.76 110.62 289.63 C 103.42 289.59 96.22 289.56 89.01 289.66 C 92.19 279.75 91.28 269.29 91.38 259.06 C 91.38 246.58 91.39 234.09 91.38 221.60 C 84.95 221.89 78.46 222.60 72.50 225.20 C 74.00 219.18 75.47 213.16 76.99 207.15 Z" />
<path fill="#e31e25" d=" M 150.27 207.13 C 154.87 207.17 159.48 207.17 164.08 207.10 C 165.98 215.76 169.06 224.08 171.63 232.55 C 176.07 246.36 180.39 260.20 184.87 274.00 C 186.59 279.35 188.65 284.60 191.28 289.58 C 184.63 289.59 177.98 289.64 171.34 289.54 C 170.91 282.40 168.28 275.70 166.62 268.81 C 159.86 268.61 153.09 268.64 146.33 268.79 C 144.83 275.74 142.46 282.53 141.92 289.66 C 135.60 289.56 129.28 289.58 122.95 289.64 C 125.71 284.48 127.86 279.04 129.65 273.48 C 135.59 255.02 141.43 236.53 147.33 218.06 C 148.48 214.47 149.41 210.80 150.27 207.13 Z" />
<path fill="#e31e25" d=" M 193.85 207.07 C 210.27 207.26 226.70 207.12 243.12 207.14 C 241.94 213.01 240.76 218.88 239.45 224.73 C 234.75 223.04 229.81 222.18 224.86 221.66 C 224.82 238.43 224.86 255.19 224.83 271.96 C 224.79 277.91 225.51 283.87 227.28 289.57 C 220.12 289.60 212.96 289.61 205.80 289.57 C 208.98 279.68 208.10 269.22 208.20 259.00 C 208.20 246.54 208.21 234.08 208.20 221.62 C 201.77 221.88 195.29 222.61 189.33 225.18 C 190.79 219.13 192.21 213.07 193.85 207.07 Z" />
<path fill="#e31e25" d=" M 254.50 207.04 C 262.66 207.34 270.83 206.98 279.00 207.24 C 285.87 207.49 292.96 210.48 296.79 216.41 C 300.98 222.76 301.44 230.90 300.09 238.20 C 298.78 244.89 293.90 250.15 288.20 253.54 C 295.32 265.69 300.57 279.12 310.21 289.64 C 304.78 289.52 299.35 289.73 293.92 289.59 C 292.10 289.78 290.86 288.28 289.79 287.06 C 282.64 278.23 278.69 267.45 273.29 257.58 C 273.52 268.25 272.25 279.20 275.45 289.57 C 268.40 289.64 261.36 289.55 254.32 289.64 C 255.84 284.57 256.60 279.28 256.55 273.99 C 256.58 256.99 256.56 240.00 256.56 223.00 C 256.62 217.61 255.76 212.27 254.50 207.04 Z" />
<path fill="#e31e25" d=" M 342.37 207.17 C 347.05 207.14 351.72 207.13 356.39 207.21 C 357.95 215.24 360.81 222.93 363.23 230.72 C 367.41 243.90 371.64 257.07 375.80 270.25 C 377.92 276.84 380.16 283.43 383.45 289.54 C 376.80 289.68 370.15 289.53 363.51 289.66 C 362.94 282.64 360.86 275.83 358.67 269.18 C 352.18 267.97 345.34 269.09 338.71 268.64 C 336.96 275.53 334.58 282.36 334.24 289.53 C 327.85 289.67 321.46 289.56 315.07 289.63 C 319.93 280.95 322.48 271.27 325.55 261.87 C 330.14 247.43 334.73 233.00 339.35 218.57 C 340.56 214.82 341.54 211.01 342.37 207.17 Z" />
<path fill="#2b2a29" d=" M 273.22 221.39 C 275.71 221.75 278.49 221.78 280.49 223.55 C 286.55 228.28 285.40 239.09 278.76 242.77 C 277.06 243.65 275.11 243.79 273.27 244.20 C 273.27 236.59 273.34 228.99 273.22 221.39 Z" />
<path fill="#2b2a29" d=" M 150.06 254.30 C 152.22 246.70 153.97 238.98 156.08 231.36 C 158.58 238.94 160.43 246.72 162.63 254.39 C 158.44 254.38 154.25 254.37 150.06 254.30 Z" />
<path fill="#2b2a29" d=" M 342.30 254.38 C 344.31 246.77 345.98 239.06 348.40 231.57 C 350.68 239.13 352.67 246.77 354.81 254.37 C 350.64 254.36 346.47 254.37 342.30 254.38 Z" />
<path fill="#f0c977" d=" M 15.05 236.34 C 16.60 245.35 16.57 254.70 15.06 263.71 C 14.18 254.63 14.18 245.42 15.05 236.34 Z" />
<path fill="#f0c977" d=" M 484.92 263.65 C 483.37 254.66 483.45 245.30 484.93 236.30 C 485.82 245.37 485.84 254.59 484.92 263.65 Z" />
<path fill="#d7b56d" d=" M 80.27 340.63 C 61.86 314.28 52.64 282.10 51.71 250.14 C 53.86 264.82 56.08 279.55 60.30 293.81 C 64.84 309.23 70.96 324.47 80.69 337.40 C 82.89 340.49 86.35 342.56 88.01 346.05 C 89.26 348.48 89.69 351.21 90.17 353.87 C 87.96 352.89 85.67 351.79 84.16 349.83 C 81.92 347.20 82.17 343.43 80.27 340.63 Z" />
<path fill="#d7b56d" d=" M 425.26 331.36 C 440.17 307.27 446.40 278.93 449.63 251.09 C 449.86 271.93 444.81 292.58 437.15 311.86 C 433.16 321.50 428.38 330.87 422.29 339.37 C 420.34 341.86 419.89 345.04 418.78 347.91 C 417.50 350.92 414.46 352.58 411.67 353.95 C 412.19 349.81 413.22 345.39 416.40 342.43 C 419.91 339.22 422.76 335.39 425.26 331.36 Z" />
<path fill="#d7b56d" d=" M 439.64 272.91 C 441.09 267.44 441.25 261.70 442.58 256.25 C 441.21 267.15 440.52 278.18 437.81 288.87 C 433.57 307.86 423.84 325.05 413.03 341.02 C 411.15 343.95 411.10 347.61 409.44 350.64 C 407.68 354.02 404.75 356.60 401.58 358.64 C 402.22 352.41 404.74 346.47 408.71 341.65 C 424.78 321.94 434.97 297.82 439.64 272.91 Z" />
<path fill="#d7b56d" d=" M 59.41 257.09 C 61.79 273.81 65.36 290.52 71.97 306.12 C 77.35 318.92 84.36 331.10 93.20 341.83 C 97.06 346.62 99.55 352.48 100.17 358.60 C 96.97 356.59 94.05 353.98 92.29 350.58 C 90.71 347.62 90.59 344.09 88.84 341.21 C 78.62 326.03 69.25 309.85 64.72 291.98 C 61.66 280.58 60.46 268.81 59.41 257.09 Z" />
<path fill="#ffd67d" d=" M 53.08 297.11 C 49.31 285.20 46.87 272.79 47.03 260.25 C 50.94 285.03 57.23 309.74 69.05 332.01 C 72.59 338.72 76.69 345.15 81.67 350.88 C 79.47 349.66 76.83 348.75 75.62 346.35 C 66.29 330.86 58.56 314.36 53.08 297.11 Z" />
<path fill="#ffd67d" d=" M 443.46 307.13 C 448.76 292.16 452.12 276.59 454.49 260.91 C 455.18 279.15 449.31 296.89 442.66 313.64 C 438.03 324.90 432.49 335.78 426.22 346.22 C 425.03 348.67 422.38 349.66 420.18 350.97 C 430.80 338.10 437.92 322.76 443.46 307.13 Z" />
<path fill="#171614" d=" M 126.21 304.64 C 128.99 302.46 132.70 303.26 135.96 303.11 C 212.98 303.22 290.02 303.06 367.04 303.15 C 368.47 303.06 369.63 303.93 370.77 304.65 C 289.25 304.72 207.73 304.73 126.21 304.64 Z" />
<path fill="#ffd67d" d=" M 126.21 304.64 C 207.73 304.73 289.25 304.72 370.77 304.65 C 369.28 307.74 365.66 306.34 363.00 306.64 C 285.35 306.60 207.69 306.60 130.04 306.64 C 128.33 306.99 127.10 306.00 126.21 304.64 Z" />
<path fill="#fefefe" d=" M 199.43 317.32 C 203.36 316.72 203.80 323.09 200.02 323.73 C 196.87 323.11 196.22 318.30 199.43 317.32 Z" />
<path fill="#fefefe" d=" M 266.12 317.49 C 267.55 317.35 269.00 317.25 270.45 317.19 C 269.13 319.22 267.79 321.24 266.60 323.36 C 265.89 323.42 264.47 323.53 263.76 323.59 C 264.57 321.57 265.18 319.46 266.12 317.49 Z" />
<path fill="#ffffff" d=" M 309.57 318.39 C 311.88 314.89 316.29 320.16 313.48 322.52 C 311.15 325.67 307.09 320.74 309.57 318.39 Z" />
<path fill="#ffffff" d=" M 220.63 328.38 C 222.96 325.98 225.24 323.54 227.54 321.12 C 227.49 322.62 227.45 324.13 227.40 325.64 C 229.05 325.64 230.70 325.63 232.35 325.65 C 232.15 326.43 231.74 328.00 231.53 328.79 C 230.20 328.58 228.88 328.39 227.55 328.20 C 227.64 332.47 227.17 336.79 227.86 341.03 C 228.91 343.00 231.08 342.33 232.82 341.98 C 233.03 341.93 233.45 341.85 233.65 341.81 C 232.92 343.05 232.26 344.34 231.43 345.52 C 228.76 346.35 224.45 346.43 223.80 342.92 C 223.19 338.11 223.64 333.24 223.58 328.40 C 222.85 328.40 221.37 328.39 220.63 328.38 Z" />
<path fill="#0e0d0c" d=" M 287.39 325.33 C 287.51 323.45 291.45 323.45 291.46 325.37 C 290.11 325.61 288.72 325.60 287.39 325.33 Z" />
<path fill="#ffffff" d=" M 146.56 325.74 C 149.56 324.61 153.22 325.15 155.54 327.46 C 160.97 332.65 158.84 343.46 151.46 345.65 C 147.35 346.93 142.75 344.70 141.08 340.78 C 138.77 335.39 140.84 328.02 146.56 325.74 Z" />
<path fill="#ffffff" d=" M 181.23 325.87 C 184.83 324.79 190.20 324.59 191.53 329.01 C 192.32 334.55 191.35 340.22 192.40 345.75 C 190.61 345.39 188.30 346.01 187.18 344.06 C 186.39 344.75 185.60 345.45 184.83 346.16 C 182.81 345.76 180.33 345.86 178.99 344.02 C 177.48 342.17 177.93 339.22 179.77 337.76 C 182.18 335.73 185.30 334.93 188.14 333.69 C 187.81 332.00 188.15 329.59 186.24 328.76 C 184.11 327.58 181.84 329.05 179.81 329.69 C 180.28 328.42 180.76 327.15 181.23 325.87 Z" />
<path fill="#ffffff" d=" M 207.73 328.46 C 209.62 324.98 213.99 324.84 217.41 325.64 C 217.51 326.60 217.73 328.53 217.84 329.49 C 215.82 328.03 211.96 326.77 211.06 330.09 C 212.00 333.61 216.36 334.83 217.71 338.19 C 219.17 341.46 216.43 345.44 213.02 345.86 C 210.92 346.10 208.84 345.65 206.78 345.35 C 206.73 343.80 206.67 342.26 206.61 340.73 C 208.51 341.95 211.16 344.63 213.32 342.39 C 215.66 340.44 212.45 338.26 211.04 336.92 C 208.46 335.04 205.89 331.75 207.73 328.46 Z" />
<path fill="#ffffff" d=" M 240.61 328.96 C 242.33 327.68 243.54 325.14 245.97 325.18 C 248.74 324.82 251.46 327.04 251.64 329.83 C 252.07 335.06 251.35 340.35 252.31 345.55 C 250.62 345.55 248.94 345.56 247.26 345.59 C 248.08 340.75 248.00 335.80 247.70 330.93 C 246.75 327.73 243.04 329.13 240.82 329.97 C 240.86 335.17 240.38 340.43 241.50 345.55 C 239.75 345.55 238.01 345.56 236.26 345.58 C 237.17 338.98 237.23 332.17 236.15 325.58 C 237.75 325.60 239.35 325.62 240.96 325.65 C 240.87 326.48 240.69 328.13 240.61 328.96 Z" />
<path fill="#ffffff" d=" M 287.39 325.33 C 288.72 325.60 290.11 325.61 291.46 325.37 C 291.54 326.23 291.70 327.96 291.78 328.83 C 293.37 327.45 294.62 324.97 297.06 325.17 C 301.13 325.09 303.52 329.36 303.96 332.94 C 304.51 337.03 304.29 342.11 300.78 344.89 C 297.93 346.94 294.29 345.66 291.53 344.15 C 291.73 346.72 292.03 349.29 292.52 351.83 C 290.73 351.84 288.94 351.85 287.15 351.89 C 288.34 343.10 287.85 334.16 287.39 325.33 Z" />
<path fill="#ffffff" d=" M 309.04 325.58 C 310.80 325.59 312.57 325.59 314.34 325.59 C 313.21 332.16 313.31 338.99 314.28 345.58 C 312.55 345.56 310.83 345.55 309.11 345.55 C 310.04 338.96 310.01 332.17 309.04 325.58 Z" />
<path fill="#ffffff" d=" M 344.51 325.68 C 350.48 323.22 356.77 328.94 356.31 335.00 C 356.84 341.60 350.07 348.15 343.48 345.39 C 335.35 341.94 336.40 328.51 344.51 325.68 Z" />
<path fill="#ffffff" d=" M 163.32 325.63 C 167.19 325.60 171.05 325.61 174.92 325.61 C 172.15 331.33 169.53 337.12 167.05 342.98 C 169.74 342.77 172.43 342.41 174.98 341.51 C 174.69 342.51 174.10 344.50 173.81 345.50 C 169.66 345.56 165.51 345.54 161.36 345.56 C 164.51 339.95 167.23 334.11 169.71 328.17 C 167.25 328.39 164.80 328.77 162.42 329.47 C 162.65 328.51 163.10 326.59 163.32 325.63 Z" />
<path fill="#ffffff" d=" M 197.39 325.60 C 199.14 325.59 200.89 325.58 202.64 325.56 C 201.27 333.18 202.97 341.02 201.54 348.61 C 200.93 351.58 197.95 352.02 195.41 352.12 C 196.86 349.99 198.25 347.68 198.11 345.00 C 198.07 338.53 198.65 331.99 197.39 325.60 Z" />
<path fill="#ffffff" d=" M 257.06 337.08 C 256.19 331.45 260.31 323.73 266.89 325.39 C 271.66 326.53 272.13 332.10 272.24 336.12 C 268.41 336.14 264.58 336.06 260.76 336.22 C 261.71 338.42 262.34 341.18 264.68 342.36 C 266.98 343.51 269.57 342.34 271.92 341.98 C 270.92 343.14 270.68 345.44 268.99 345.74 C 263.38 347.34 256.97 343.07 257.06 337.08 Z" />
<path fill="#ffffff" d=" M 317.60 325.55 C 319.42 325.58 321.25 325.60 323.08 325.62 C 323.82 330.99 325.77 336.08 327.30 341.26 C 328.86 336.09 330.85 330.99 331.48 325.60 C 332.46 325.58 334.42 325.55 335.40 325.53 C 332.27 331.82 330.76 338.75 328.64 345.41 C 327.35 345.48 326.06 345.55 324.78 345.62 C 322.61 338.87 321.29 331.71 317.60 325.55 Z" />
<path fill="#2b2a29" d=" M 146.61 328.63 C 147.85 327.13 149.72 328.23 151.07 328.95 C 155.14 331.88 155.71 338.67 152.34 342.32 C 150.76 344.29 148.02 342.71 146.56 341.38 C 143.53 337.98 143.23 331.88 146.61 328.63 Z" />
<path fill="#1d1c1b" d=" M 260.82 333.29 C 261.51 331.04 262.29 328.14 265.08 327.80 C 267.96 327.97 268.63 331.00 269.07 333.30 C 266.32 333.34 263.57 333.33 260.82 333.29 Z" />
<path fill="#2b2a29" d=" M 345.14 327.99 C 352.69 327.72 354.76 339.56 348.91 343.25 C 341.50 343.26 339.57 331.79 345.14 327.99 Z" />
<path fill="#090807" d=" M 227.55 328.20 C 228.88 328.39 230.20 328.58 231.53 328.79 L 232.58 328.96 C 231.70 329.28 229.93 329.93 229.04 330.25 C 228.96 333.70 228.96 337.16 229.05 340.62 C 229.99 340.96 231.88 341.64 232.82 341.98 C 231.08 342.33 228.91 343.00 227.86 341.03 C 227.17 336.79 227.64 332.47 227.55 328.20 Z" />
<path fill="#2b2a29" d=" M 294.16 329.03 C 299.53 327.79 301.09 335.05 299.78 338.93 C 299.36 342.61 293.84 344.49 291.84 341.03 C 291.62 337.35 291.60 333.64 291.91 329.97 C 292.47 329.74 293.60 329.26 294.16 329.03 Z" />
<path fill="#191816" d=" M 182.24 340.99 C 182.24 339.68 182.47 338.41 182.64 337.13 C 184.40 337.14 186.17 337.15 187.94 337.18 C 187.88 339.01 187.91 340.84 187.69 342.67 C 185.79 342.84 183.16 343.12 182.24 340.99 Z" />
<path fill="#d7b56d" d=" M 77.20 352.02 C 80.29 352.83 83.62 353.75 85.73 356.34 C 87.92 358.65 88.16 361.97 88.65 364.94 C 86.07 364.23 83.22 363.68 81.32 361.63 C 78.61 359.17 77.87 355.45 77.20 352.02 Z" />
<path fill="#d7b56d" d=" M 415.71 356.72 C 417.81 353.88 421.33 352.80 424.62 352.07 C 423.86 355.43 423.17 359.09 420.54 361.56 C 418.60 363.59 415.79 364.26 413.19 364.98 C 413.52 362.12 413.79 359.02 415.71 356.72 Z" />
<path fill="#d7b56d" d=" M 102.19 356.23 C 106.76 358.08 111.38 360.61 113.99 364.98 C 116.00 368.00 116.57 371.64 116.97 375.17 C 108.94 372.21 103.22 364.68 102.19 356.23 Z" />
<path fill="#d7b56d" d=" M 89.30 356.26 C 96.22 357.48 101.39 363.15 102.89 369.87 C 95.80 368.97 90.48 363.16 89.30 356.26 Z" />
<path fill="#d7b56d" d=" M 387.85 364.85 C 390.47 360.56 395.03 358.02 399.60 356.29 C 398.47 364.71 392.82 372.17 384.83 375.19 C 385.19 371.60 385.75 367.88 387.85 364.85 Z" />
<path fill="#d7b56d" d=" M 398.79 369.74 C 400.54 363.15 405.52 357.43 412.47 356.29 C 411.25 363.12 405.96 369.13 398.79 369.74 Z" />
<path fill="#ffd67d" d=" M 246.07 361.29 C 247.70 360.27 249.84 359.66 251.71 360.39 C 253.75 361.59 254.94 363.75 256.74 365.25 C 259.74 367.21 263.60 367.43 266.44 369.69 C 269.00 372.05 269.65 375.68 271.67 378.44 C 272.54 379.86 273.72 381.24 273.91 382.97 C 273.39 385.30 272.03 387.49 272.37 389.97 C 272.23 392.98 274.61 396.06 273.06 398.97 C 271.60 400.67 269.39 401.47 267.81 403.03 C 266.97 404.95 266.86 407.38 265.05 408.73 C 262.31 411.30 258.49 411.83 255.12 413.16 C 253.23 414.21 251.77 411.71 249.88 411.67 C 246.62 411.50 244.73 408.29 241.50 408.10 C 238.58 408.02 237.78 404.84 235.97 403.13 C 234.60 401.40 231.85 400.01 232.52 397.41 C 234.51 399.88 236.20 402.96 239.78 403.31 C 237.32 400.64 234.77 397.76 235.06 393.85 C 234.53 394.63 233.46 396.21 232.93 396.99 C 233.10 394.05 230.97 391.80 230.50 389.08 C 231.12 385.76 231.54 382.41 232.02 379.08 C 233.70 376.72 235.57 374.50 236.99 371.97 C 238.42 369.31 241.83 369.41 244.22 368.11 C 245.33 366.01 243.40 362.52 246.07 361.29 Z" />
<path fill="#2a2929" d=" M 246.22 369.37 C 246.78 366.64 244.72 361.26 249.02 361.20 C 251.26 361.28 252.67 363.31 254.27 364.61 C 253.61 366.73 253.29 368.98 253.83 371.17 C 255.40 369.98 254.57 367.57 254.98 365.87 C 258.46 367.45 262.41 368.09 265.51 370.43 C 267.84 372.22 268.35 375.28 269.20 377.91 C 268.13 377.73 266.01 377.37 264.94 377.19 C 265.28 373.07 262.08 370.17 258.52 368.90 C 260.02 370.71 261.89 372.20 263.28 374.13 C 264.03 376.21 263.08 378.36 262.64 380.40 C 260.98 379.34 259.11 378.50 257.83 376.95 C 257.69 375.48 257.61 374.01 257.57 372.54 C 256.37 374.64 255.57 377.19 253.38 378.49 C 252.27 379.45 251.27 378.30 250.62 377.42 C 249.38 375.18 248.91 372.62 247.95 370.27 C 247.82 372.78 248.29 375.26 248.75 377.73 C 247.31 377.97 245.75 379.47 244.34 378.64 C 242.80 376.15 244.40 373.31 244.77 370.72 C 247.13 369.83 250.38 369.50 251.55 366.93 C 252.34 365.02 250.30 363.80 249.13 362.72 C 249.50 364.01 249.92 365.28 250.37 366.56 C 249.00 367.51 247.61 368.44 246.22 369.37 Z" />
<path fill="#d7b56d" d=" M 84.48 367.96 C 88.17 368.22 92.13 368.48 95.21 370.78 C 98.48 372.87 100.00 376.60 101.15 380.14 C 93.00 381.88 86.98 374.83 84.48 367.96 Z" />
<path fill="#d7b56d" d=" M 119.46 368.05 C 128.10 372.01 131.94 381.64 132.52 390.61 C 124.20 386.35 119.48 377.23 119.46 368.05 Z" />
<path fill="#d7b56d" d=" M 406.09 371.12 C 409.23 368.57 413.40 368.18 417.29 368.00 C 415.33 372.39 412.79 376.97 408.32 379.21 C 405.95 380.48 403.19 380.20 400.61 380.19 C 401.71 376.82 403.06 373.24 406.09 371.12 Z" />
<path fill="#d7b56d" d=" M 369.26 390.59 C 369.83 381.68 373.62 371.93 382.32 368.12 C 382.24 377.26 377.56 386.34 369.26 390.59 Z" />
<path fill="#2b2a29" d=" M 237.97 380.91 C 234.65 378.39 236.18 372.16 240.16 371.08 C 241.68 370.63 243.22 370.24 244.78 369.89 C 243.28 372.01 242.13 374.37 242.04 377.01 C 242.28 379.39 239.76 380.22 237.97 380.91 Z" />
<path fill="#d7b56d" d=" M 102.21 372.81 C 105.97 373.17 110.07 373.34 113.17 375.79 C 116.99 378.45 118.68 382.98 119.68 387.34 C 116.38 387.56 112.77 388.07 109.85 386.16 C 105.15 383.39 103.20 377.89 102.21 372.81 Z" />
<path fill="#d7b56d" d=" M 388.74 375.68 C 391.84 373.32 395.88 373.16 399.60 372.84 C 398.51 377.88 396.63 383.38 391.93 386.15 C 389.01 388.03 385.44 387.57 382.16 387.42 C 382.99 382.94 384.83 378.33 388.74 375.68 Z" />
<path fill="#322f2c" d=" M 234.33 378.23 C 236.14 378.58 234.73 382.41 233.09 381.75 C 232.30 380.58 233.11 378.76 234.33 378.23 Z" />
<path fill="#2b2a29" d=" M 252.82 381.09 C 253.97 379.50 255.61 378.35 257.09 377.09 C 258.01 379.49 258.83 381.93 259.60 384.40 C 258.40 385.21 257.23 386.12 255.87 386.66 C 254.12 385.46 251.57 383.50 252.82 381.09 Z" />
<path fill="#202125" d=" M 247.32 383.92 C 248.60 382.05 249.29 379.87 250.13 377.78 C 252.93 381.20 251.03 386.44 246.96 387.75 C 243.18 385.83 243.61 380.19 247.43 378.54 C 247.41 379.88 247.35 382.58 247.32 383.92 Z" />
<path fill="#0e0d0c" d=" M 265.12 378.12 C 269.48 378.05 268.03 386.06 264.25 385.81 C 261.68 384.86 260.25 382.34 259.17 380.00 C 261.25 380.86 264.33 380.81 264.69 383.68 L 265.83 383.71 C 265.58 381.84 265.35 379.98 265.12 378.12 Z" />
<path fill="#232426" d=" M 269.00 378.13 C 272.83 379.77 273.53 385.30 269.91 387.60 C 267.09 385.25 269.18 381.21 269.00 378.13 Z" />
<path fill="#191816" d=" M 235.55 381.94 C 238.51 382.10 241.21 381.01 243.74 379.58 C 242.58 381.99 241.78 385.16 238.95 386.14 C 237.03 385.58 236.54 383.41 235.55 381.94 Z" />
<path fill="#1f1f23" d=" M 231.93 390.92 C 230.90 387.56 232.47 384.42 235.21 382.56 C 234.88 385.59 234.07 388.64 231.93 390.92 Z" />
<path fill="#d7b56d" d=" M 94.77 385.39 C 98.46 385.38 102.35 385.52 105.64 387.39 C 108.82 389.05 111.03 391.96 113.17 394.74 C 105.60 397.21 97.80 392.33 94.77 385.39 Z" />
<path fill="#171614" d=" M 236.05 385.59 C 236.95 386.95 239.25 388.20 238.29 390.11 C 237.10 392.24 234.59 393.16 232.25 392.56 C 232.99 391.58 233.82 390.68 234.68 389.79 C 235.14 388.39 235.59 386.98 236.05 385.59 Z" />
<path fill="#151820" d=" M 239.79 389.00 C 239.31 387.02 241.80 385.97 242.65 384.54 C 242.51 386.88 242.26 389.23 242.40 391.58 C 243.20 390.15 243.57 388.51 244.05 386.97 C 245.15 388.02 246.25 389.07 247.36 390.13 C 246.40 391.34 245.50 392.62 244.34 393.66 C 241.78 394.16 240.06 391.17 239.79 389.00 Z" />
<path fill="#292828" d=" M 260.56 384.68 C 265.36 386.65 263.22 393.81 258.75 394.65 C 259.76 398.01 257.76 400.89 255.16 402.78 C 253.34 401.24 251.30 399.51 251.39 396.87 C 252.22 395.00 254.36 394.55 256.05 393.77 C 256.11 395.28 256.20 396.79 256.30 398.31 C 256.89 396.87 257.47 395.43 258.04 393.98 C 257.36 391.28 256.37 386.51 260.11 385.92 C 260.14 386.92 260.21 388.91 260.24 389.90 C 260.64 389.89 261.44 389.87 261.84 389.86 C 261.39 388.14 260.95 386.40 260.56 384.68 Z" />
<path fill="#d7b56d" d=" M 388.62 395.09 C 392.10 388.39 399.51 384.51 407.02 385.40 C 405.08 388.85 402.64 392.28 398.93 393.97 C 395.75 395.63 392.07 395.37 388.62 395.09 Z" />
<path fill="#d7b56d" d=" M 135.61 386.25 C 144.20 387.80 148.72 396.18 150.70 403.92 C 146.31 403.18 141.92 401.33 139.19 397.66 C 136.56 394.47 136.06 390.21 135.61 386.25 Z" />
<path fill="#181a21" d=" M 248.50 389.07 C 249.26 388.21 250.06 387.39 250.89 386.61 C 251.11 388.61 251.32 390.63 251.69 392.63 C 252.55 390.46 252.57 388.10 252.72 385.82 C 254.14 386.86 255.57 387.89 257.00 388.93 C 255.85 391.34 254.06 393.32 251.85 394.83 C 250.25 393.29 247.73 391.68 248.50 389.07 Z" />
<path fill="#2d2b2a" d=" M 264.28 390.03 C 264.04 388.11 265.77 387.11 267.11 386.19 C 267.14 387.18 267.19 389.17 267.22 390.16 C 268.52 389.57 269.67 387.42 271.27 388.74 C 271.99 391.46 269.54 393.35 267.93 395.08 C 266.36 393.73 263.92 392.49 264.28 390.03 Z" />
<path fill="#d7b56d" d=" M 351.09 404.04 C 352.94 396.26 357.52 387.75 366.17 386.31 C 365.72 390.43 365.08 394.83 362.24 398.06 C 359.51 401.51 355.25 403.11 351.09 404.04 Z" />
<path fill="#d7b56d" d=" M 117.98 390.26 C 121.93 390.17 126.08 390.26 129.58 392.33 C 134.31 394.86 137.19 399.64 139.03 404.51 C 135.87 405.18 132.45 405.98 129.36 404.56 C 123.41 402.06 120.31 395.90 117.98 390.26 Z" />
<path fill="#d7b56d" d=" M 371.63 392.66 C 375.23 390.29 379.65 390.15 383.82 390.26 C 381.42 395.82 378.45 401.90 372.60 404.48 C 369.41 406.05 365.87 405.25 362.64 404.31 C 364.70 399.83 367.19 395.19 371.63 392.66 Z" />
<path fill="#1e1f23" d=" M 239.47 400.73 C 235.49 398.79 236.01 393.20 239.31 390.82 C 239.57 393.25 239.03 395.74 239.68 398.14 C 240.06 396.68 240.48 395.23 240.94 393.80 C 245.28 394.69 243.65 402.15 239.47 400.73 Z" />
<path fill="#2b2a29" d=" M 246.90 402.89 C 243.55 400.05 243.88 393.99 247.82 391.82 C 248.90 393.47 251.12 394.82 250.89 397.05 C 250.87 399.63 248.42 401.13 246.90 402.89 Z" />
<path fill="#2f2d2a" d=" M 260.21 396.36 C 261.29 395.08 262.51 393.93 263.70 392.77 C 264.88 394.06 266.09 395.33 267.27 396.63 C 266.11 397.83 264.96 399.03 263.81 400.24 C 262.55 398.99 261.20 397.83 260.21 396.36 Z" />
<path fill="#191b22" d=" M 266.64 401.20 C 266.07 397.39 270.03 395.09 272.38 392.78 C 272.96 396.30 271.06 402.17 266.64 401.20 Z" />
<path fill="#d7b56d" d=" M 151.15 394.79 C 157.11 396.29 162.96 399.43 166.28 404.78 C 168.49 408.08 169.19 412.07 169.65 415.95 C 165.40 415.68 161.24 413.91 158.55 410.52 C 154.69 406.06 152.73 400.37 151.15 394.79 Z" />
<path fill="#d7b56d" d=" M 338.30 401.30 C 341.60 397.88 346.13 396.12 350.56 394.65 C 348.85 401.32 346.29 408.28 340.83 412.81 C 338.43 414.90 335.23 415.57 332.17 416.00 C 332.51 410.60 334.27 405.09 338.30 401.30 Z" />
<path fill="#2c2b2a" d=" M 260.41 398.56 C 261.58 399.62 262.74 400.68 263.89 401.77 C 262.51 403.68 260.87 405.39 258.97 406.80 C 258.27 405.59 257.63 404.36 257.04 403.10 C 258.03 401.49 259.25 400.05 260.41 398.56 Z" />
<path fill="#d7b56d" d=" M 105.00 400.57 C 109.58 399.70 114.64 399.67 118.75 402.15 C 122.64 404.28 125.34 407.96 127.40 411.79 C 123.62 413.25 119.28 414.40 115.47 412.33 C 110.79 409.83 106.87 405.55 105.00 400.57 Z" />
<path fill="#d7b56d" d=" M 384.37 401.44 C 388.33 399.51 392.86 400.00 397.08 400.55 C 394.19 405.90 390.17 411.45 384.01 413.13 C 380.66 414.18 377.27 412.91 374.27 411.45 C 376.89 407.48 379.85 403.38 384.37 401.44 Z" />
<path fill="#212225" d=" M 241.23 403.18 C 242.14 402.32 243.04 401.47 243.96 400.63 C 244.51 401.81 245.05 403.01 245.60 404.20 C 244.52 405.42 243.40 406.60 242.23 407.74 C 240.65 406.78 239.08 405.80 237.53 404.82 C 238.76 404.26 239.99 403.71 241.23 403.18 Z" />
<path fill="#2e2c2a" d=" M 247.37 404.10 C 248.67 402.84 249.96 401.58 251.25 400.32 C 252.32 401.71 253.38 403.13 254.42 404.56 C 253.07 405.54 251.72 406.51 250.36 407.47 C 249.36 406.34 248.36 405.22 247.37 404.10 Z" />
<path fill="#212125" d=" M 260.16 407.50 C 262.33 405.41 264.23 403.08 266.16 400.78 C 265.87 403.69 265.96 407.26 263.09 409.01 C 262.36 408.64 260.89 407.88 260.16 407.50 Z" />
<path fill="#d7b56d" d=" M 178.17 403.07 C 186.09 405.37 193.98 409.33 198.82 416.24 C 202.36 421.06 203.75 427.13 203.43 433.05 C 199.45 431.96 195.40 430.62 192.19 427.93 C 188.90 425.21 186.24 421.82 184.14 418.14 C 181.46 413.41 179.70 408.25 178.17 403.07 Z" />
<path fill="#d7b56d" d=" M 304.29 414.49 C 309.19 408.59 316.38 405.20 323.61 403.08 C 321.98 408.49 320.11 413.88 317.23 418.77 C 314.86 422.82 311.79 426.50 307.90 429.15 C 305.01 431.14 301.62 432.18 298.25 432.97 C 297.99 426.34 299.87 419.54 304.29 414.49 Z" />
<path fill="#222124" d=" M 245.90 405.03 C 248.33 405.36 249.32 408.44 250.46 410.34 C 247.60 411.44 243.64 407.73 245.90 405.03 Z" />
<path fill="#2d2c2a" d=" M 251.02 410.11 C 252.05 407.60 254.28 405.92 256.07 403.97 C 257.38 406.08 257.61 409.97 261.12 409.09 C 260.57 409.73 260.00 410.37 259.41 410.99 C 258.62 410.58 257.82 410.18 257.04 409.77 C 256.06 410.83 255.06 411.86 254.02 412.86 C 252.97 411.98 251.97 411.07 251.02 410.11 Z" />
<path fill="#d7b56d" d=" M 136.18 407.13 C 142.02 407.00 148.19 408.36 152.53 412.52 C 155.99 415.62 158.00 419.97 159.08 424.43 C 152.88 424.42 146.40 422.60 142.23 417.75 C 139.39 414.75 137.73 410.90 136.18 407.13 Z" />
<path fill="#d7b56d" d=" M 351.59 410.67 C 355.62 407.82 360.66 407.22 365.46 407.02 C 363.60 412.90 360.13 418.58 354.63 421.67 C 351.00 423.89 346.67 424.19 342.53 424.38 C 344.03 419.03 346.79 413.75 351.59 410.67 Z" />
<path fill="#d7b56d" d=" M 124.82 418.35 C 132.00 415.85 140.36 418.27 144.79 424.51 C 145.24 426.27 142.72 426.02 141.64 426.54 C 134.81 428.16 128.85 423.28 124.82 418.35 Z" />
<path fill="#171614" d=" M 183.92 417.77 L 184.14 418.14 C 186.24 421.82 188.90 425.21 192.19 427.93 C 191.57 429.08 190.95 430.24 190.33 431.41 C 188.31 427.13 185.22 423.32 181.13 420.88 C 181.96 419.75 182.90 418.72 183.92 417.77 Z" />
<path fill="#d7b56d" d=" M 356.27 425.25 C 358.91 422.15 362.00 419.15 366.04 418.02 C 369.55 416.87 373.27 417.58 376.82 418.15 C 373.94 422.15 369.92 425.70 364.95 426.66 C 361.97 427.25 359.03 426.25 356.27 425.25 Z" />
<path fill="#d7b56d" d=" M 161.06 421.43 C 167.21 418.28 174.97 417.16 181.13 420.88 C 185.22 423.32 188.31 427.13 190.33 431.41 C 190.63 432.03 191.22 433.27 191.51 433.89 C 190.96 434.16 189.86 434.68 189.31 434.95 C 187.65 435.70 185.96 436.39 184.24 437.00 C 179.77 437.56 175.10 436.45 171.46 433.77 C 166.94 430.67 163.93 425.98 161.06 421.43 Z" />
<path fill="#171614" d=" M 317.23 418.77 C 317.85 419.79 318.47 420.81 319.11 421.84 C 315.56 424.50 312.87 428.14 310.98 432.12 C 309.94 431.14 308.95 430.11 307.90 429.15 C 311.79 426.50 314.86 422.82 317.23 418.77 Z" />
<path fill="#d7b56d" d=" M 319.11 421.84 C 325.37 417.09 333.81 418.16 340.60 421.12 C 339.47 423.18 338.35 425.27 336.97 427.18 C 334.41 430.71 331.02 433.55 327.33 435.85 C 326.90 435.99 326.02 436.28 325.58 436.43 C 321.18 437.75 316.51 437.01 312.43 435.07 C 310.86 434.42 310.37 433.44 310.98 432.12 C 312.87 428.14 315.56 424.50 319.11 421.84 Z" />
<path fill="#171614" d=" M 336.97 427.18 L 337.23 426.84 C 338.16 427.91 339.12 428.98 340.07 430.04 C 336.95 431.42 334.23 433.53 331.91 436.02 C 331.54 436.37 330.79 437.08 330.42 437.44 C 330.31 437.18 330.09 436.66 329.97 436.41 C 328.71 436.45 327.45 436.50 326.20 436.56 L 327.33 435.85 C 331.02 433.55 334.41 430.71 336.97 427.18 Z" />
<path fill="#d7b56d" d=" M 143.88 434.00 C 147.85 430.76 152.97 428.49 158.19 429.24 C 163.27 429.80 167.32 433.33 170.60 436.99 C 167.43 439.18 164.08 441.61 160.09 441.82 C 153.73 442.47 147.82 438.71 143.88 434.00 Z" />
<path fill="#d7b56d" d=" M 340.07 430.04 C 346.33 427.59 353.05 430.17 358.13 434.00 C 354.32 437.81 349.73 441.59 344.10 441.85 C 339.56 442.11 334.44 440.36 331.72 436.68 L 331.91 436.02 C 334.23 433.53 336.95 431.42 340.07 430.04 Z" />
<path fill="#ffffff" d=" M 217.90 431.79 C 221.38 430.65 226.35 430.16 228.22 434.12 C 229.81 438.59 225.95 442.33 223.67 445.74 C 225.51 445.72 227.36 445.69 229.20 445.69 C 229.18 446.45 229.12 447.98 229.09 448.75 C 225.22 448.75 221.34 448.76 217.46 448.76 C 219.98 444.55 224.00 441.00 225.06 436.07 C 224.12 433.17 220.76 434.36 218.58 434.61 C 218.41 433.91 218.07 432.50 217.90 431.79 Z" />
<path fill="#ffffff" d=" M 239.38 431.39 C 242.32 429.98 246.16 431.48 247.35 434.52 C 248.64 438.11 248.71 442.29 247.18 445.83 C 245.60 449.44 240.30 450.23 237.65 447.39 C 235.41 444.87 235.33 441.21 235.56 438.04 C 235.77 435.44 236.81 432.49 239.38 431.39 Z" />
<path fill="#ffffff" d=" M 254.61 434.21 C 257.24 433.07 259.86 431.92 262.48 430.77 C 262.50 435.77 262.49 440.78 262.46 445.79 C 263.76 445.78 265.07 445.78 266.38 445.79 C 266.26 446.50 266.01 447.92 265.88 448.63 C 262.26 448.91 258.63 448.76 255.01 448.61 C 254.68 445.75 256.78 445.55 259.01 445.59 C 258.90 442.28 258.93 438.96 259.09 435.65 C 258.29 435.97 256.69 436.60 255.88 436.91 C 255.57 436.24 254.93 434.89 254.61 434.21 Z" />
<path fill="#ffffff" d=" M 274.09 431.23 C 277.00 431.22 279.91 431.22 282.82 431.22 C 282.91 432.00 283.08 433.55 283.17 434.33 C 281.21 434.32 279.25 434.30 277.30 434.29 C 277.22 435.27 277.14 436.26 277.06 437.24 C 278.79 437.58 280.53 437.93 282.20 438.50 C 284.63 441.01 284.54 445.69 281.50 447.69 C 278.78 449.55 275.22 449.26 272.21 448.35 C 272.37 447.69 272.69 446.37 272.85 445.71 C 275.55 445.75 279.88 446.81 280.46 442.99 C 279.88 439.57 276.09 440.37 273.66 440.75 C 273.81 437.58 273.91 434.40 274.09 431.23 Z" />
<path fill="#272726" d=" M 240.64 434.54 C 242.22 432.70 244.20 435.34 244.21 436.99 C 244.38 440.00 245.29 444.68 241.86 446.20 C 239.32 445.33 239.40 442.20 239.35 440.02 C 239.45 438.18 239.26 435.97 240.64 434.54 Z" />
<path fill="#0d0c0a" d=" M 277.30 434.29 C 279.25 434.30 281.21 434.32 283.17 434.33 C 282.55 435.03 281.95 435.74 281.35 436.46 C 281.63 437.13 281.92 437.81 282.20 438.50 C 280.53 437.93 278.79 437.58 277.06 437.24 C 277.14 436.26 277.22 435.27 277.30 434.29 Z" />
<path fill="#0e0d0c" d=" M 184.24 437.00 C 185.96 436.39 187.65 435.70 189.31 434.95 C 191.66 435.98 194.20 436.38 196.75 436.52 C 196.54 436.82 196.10 437.44 195.89 437.75 C 191.18 437.04 186.28 437.86 182.17 440.31 C 181.52 439.72 180.86 439.13 180.21 438.55 C 181.55 438.02 182.89 437.50 184.24 437.00 Z" />
<path fill="#171614" d=" M 305.13 436.52 C 307.57 436.06 310.00 435.60 312.43 435.07 C 316.51 437.01 321.18 437.75 325.58 436.43 L 325.72 437.29 C 323.62 438.24 321.53 439.21 319.45 440.21 C 315.42 437.92 310.70 437.15 306.13 437.72 C 305.88 437.42 305.38 436.82 305.13 436.52 Z" />
<path fill="#d7b56d" d=" M 182.17 440.31 C 186.28 437.86 191.18 437.04 195.89 437.75 C 198.51 438.34 201.02 439.33 203.54 440.26 C 201.47 445.74 198.09 451.08 192.69 453.77 C 185.75 457.30 177.41 456.14 170.41 453.35 C 173.49 448.35 177.04 443.38 182.17 440.31 Z" />
<path fill="#d7b56d" d=" M 298.10 440.54 C 300.69 439.39 303.32 438.24 306.13 437.72 C 310.70 437.15 315.42 437.92 319.45 440.21 C 324.61 443.35 328.44 448.26 331.24 453.54 C 323.84 456.14 315.00 457.46 307.97 453.15 C 303.15 450.40 300.42 445.37 298.10 440.54 Z" />
</svg>
