<?xml version="1.0" encoding="iso-8859-1"?>
<!-- Generator: Adobe Illustrator 16.0.0, SVG Export Plug-In . SVG Version: 6.00 Build 0)  -->
<!DOCTYPE svg PUBLIC "-//W3C//DTD SVG 1.1//EN" "http://www.w3.org/Graphics/SVG/1.1/DTD/svg11.dtd">
<svg xmlns="http://www.w3.org/2000/svg" xmlns:xlink="http://www.w3.org/1999/xlink" version="1.1" id="Capa_1" x="0px" y="0px" width="512px" height="512px" viewBox="0 0 433.511 433.511" style="enable-background:new 0 0 433.511 433.511;" xml:space="preserve">
<g>
	<g>
		<path d="M411.192,122.541c7.328-22.894-7.238-53.834-35.826-74.315c-36.5-26.148-94.756-34.427-154.953,13.794l-33.956-33.956    c-2.929-2.928-7.677-2.928-10.607,0L2.196,201.713C0.79,203.121,0,205.027,0,207.018c0,1.99,0.79,3.896,2.196,5.304l73.795,73.795    c1.407,1.406,3.314,2.196,5.304,2.196c1.99,0,3.896-0.79,5.304-2.196l173.65-173.652c2.929-2.93,2.929-7.678,0-10.607    l-29.142-29.141c53.308-41.798,103.942-34.92,135.521-12.297c19.78,14.171,31.926,34.296,31.521,50.158    c-15.089-11.295-33.331-17.409-52.518-17.409c-23.473,0-45.541,9.142-62.14,25.739c-13.595,13.595-22.193,30.818-24.868,49.809    c-2.323,16.493,0.154,33.564,6.984,48.666l-131.05,131.049c-1.406,1.407-2.196,3.314-2.196,5.305v46.407    c0,4.143,3.357,7.5,7.5,7.5h46.406c1.989,0,3.896-0.79,5.304-2.195l138.008-138.004c5.293,0.979,10.681,1.473,16.068,1.474    c0.002,0-0.001,0,0.002,0c23.467,0,45.53-9.139,62.122-25.729c16.599-16.6,25.738-38.666,25.737-62.139    C433.513,159.245,425.615,138.662,411.192,122.541z M244.339,107.16L81.295,270.205l-63.188-63.188L181.153,43.973l27.858,27.858    c-2.471,2.271-4.942,4.629-7.414,7.101c-2.929,2.93-2.929,7.678,0,10.607c2.93,2.928,7.678,2.928,10.607,0    c2.478-2.478,4.953-4.832,7.425-7.089L244.339,107.16z M397.169,232.578c-13.759,13.76-32.055,21.337-51.518,21.337    c-5.648-0.001-11.298-0.655-16.785-1.947c-2.527-0.595-5.186,0.161-7.021,1.997l-138.68,138.677h-35.8V356.84l28.565-28.564    l8.862,8.859c1.465,1.464,3.384,2.196,5.303,2.196c1.92,0,3.839-0.731,5.304-2.197c2.929-2.93,2.929-7.678-0.001-10.605    l-8.861-8.859l19.068-19.067l14.354,14.355c1.465,1.465,3.384,2.197,5.304,2.197c1.919,0,3.839-0.732,5.304-2.196    c2.93-2.929,2.93-7.678,0-10.605l-14.354-14.357l17.653-17.653l8.859,8.859c1.465,1.464,3.385,2.196,5.305,2.196    c1.918,0,3.838-0.732,5.304-2.196c2.929-2.93,2.929-7.678,0-10.607l-8.859-8.858l35.539-35.539    c2.335-2.335,2.867-5.923,1.313-8.836c-15.213-28.492-10.077-62.99,12.776-85.844c13.766-13.766,32.066-21.347,51.532-21.347    s37.767,7.581,51.531,21.347c13.766,13.765,21.348,32.066,21.348,51.533C418.515,200.513,410.934,218.815,397.169,232.578z" fill="#FFFFFF"/>
		<path d="M357.564,135.673c-4.42-4.422-11.592-4.424-16.014,0c-4.422,4.422-4.422,11.592,0,16.016l33.441,33.441    c4.424,4.422,11.594,4.422,16.016,0c4.422-4.424,4.424-11.592,0-16.016L357.564,135.673z" fill="#FFFFFF"/>
	</g>
</g>
<g>
</g>
<g>
</g>
<g>
</g>
<g>
</g>
<g>
</g>
<g>
</g>
<g>
</g>
<g>
</g>
<g>
</g>
<g>
</g>
<g>
</g>
<g>
</g>
<g>
</g>
<g>
</g>
<g>
</g>
</svg>
