<?xml version="1.0" encoding="utf-8"?>
<!-- Generator: Adobe Illustrator 19.2.1, SVG Export Plug-In . SVG Version: 6.00 Build 0)  -->
<svg version="1.1" id="Layer_1" xmlns="http://www.w3.org/2000/svg" xmlns:xlink="http://www.w3.org/1999/xlink" x="0px" y="0px"
	 viewBox="0 0 500 132.9" style="enable-background:new 0 0 500 132.9;" xml:space="preserve">
<style type="text/css">
	.st0{fill:#FFFFFF;}
</style>
<g>
	<polygon class="st0" points="0,132.9 66.3,56.6 79.3,90.3 154.6,28.9 180.7,85.9 250,0 332.4,85.4 394.3,37.4 432.5,81 460.2,56.2 
		500,132.9 456.5,71.3 432.5,81 390.6,50.9 341,122.9 264.9,29.3 256.6,41.5 225.4,41.5 180.3,122.9 147.7,52.1 79.3,90.3 
		64.3,71.1 	"/>
	<g>
		<path class="st0" d="M264.2,69.8c-4.5-8.6-4.3-15.3-9.8-19.3c0,0,0.4,8.4-3.9,16.4c-4.8,8.9-11.4,11.6-11.4,22.5
			c0,9.6,7.8,17.4,17.4,17.4s17.4-7.8,17.4-17.4C273.8,81.5,267.3,75.7,264.2,69.8z M256.3,104.5c-1.2,0-2.3-0.1-3.4-0.4
			c0,0,15.5-0.8,15.8-14.2c0.2-6.9-2.4-12.1-2.4-12.1c3.1,3.1,4.7,7.6,4.7,12C271.1,97.9,264.5,104.5,256.3,104.5z"/>
	</g>
</g>
</svg>
